# xmcd
#
# Track frame offsets:
#	150
#	15575
#	32802
#	58282
#	73777
#	93517
#	110035
#	124612
#	150510
#	164812
#	176422
#	193740
#
# Disc length: 3362 seconds
#
# Revision: 0
# Processed by: cddbd v1.5.1PL2 Copyright (c) Steve Scherf et al.
# Submitted via: audiograbber 1.81.03
#
DISCID=a80d200c
DTITLE=Various Artist - SILK CUT - GREATEST CUTS
DYEAR=1900
DGENRE=Tribal
TTITLE0=HAROLD MELVIN and THE BLUE NOTES - IF YOU DON'T KNOW ME BY NOW
TTITLE1=WILL TO POWER - I'M NOT IN LOVE
TTITLE2=REGINA BELLE - BABY COME TO ME
TTITLE3=OWEN PAUL - MY FAVOURITE WASTE OF TIME
TTITLE4=PRINZ ZEK and BIG BAFFOLO - I'D LOVE YOU TO WANT ME
TTITLE5=SHABBA RANKS - MR. LOVERMAN
TTITLE6=JOHNNY NASH - TEARS ON MY PILLOW (I CAN'T TAKE IT)
TTITLE7=ISLEY JASPER ISLEY - CARAVAN OF LOVE
TTITLE8=LOUIS ARMSTRONG - CABARET
TTITLE9=PERCY FAITH - THE GIRL FROM IPANEMA
TTITLE10=GREG ADAMS - SMOOTH OPERATOR
TTITLE11=FILIPPOS TSEMPEROULIS - 11:45 AM MEDLEY
EXTD=
EXTT0=
EXTT1=
EXTT2=
EXTT3=
EXTT4=
EXTT5=
EXTT6=
EXTT7=
EXTT8=
EXTT9=
EXTT10=
EXTT11=
PLAYORDER=
